<?xml version="1.0" encoding="UTF-8" standalone="no"?>
<svg width="156px" height="29px" viewBox="0 0 156 29" version="1.1" xmlns="http://www.w3.org/2000/svg" xmlns:xlink="http://www.w3.org/1999/xlink">
    <defs></defs>
    <g id="Version-1" stroke="none" stroke-width="1" fill="none" fill-rule="evenodd">
        <g id="services" transform="translate(-722.000000, -22.000000)">
            <g id="header-body">
                <g id="eggfoo-logo-light" transform="translate(722.000000, 22.000000)">
                    <path d="M141.703355,0.332962963 C137.699847,0.332962963 134.070498,1.94944444 131.451381,4.84407407 C129.056759,7.47555556 127.709784,10.9340741 127.709784,14.4677778 C127.709784,18.602963 129.468334,22.4374074 132.648691,25.2944444 C135.005897,27.3996296 138.261086,28.6401852 141.703355,28.6401852 C145.145624,28.6401852 148.400813,27.3996296 150.758019,25.2944444 C153.938376,22.4374074 155.696927,18.5653704 155.696927,14.4677778 C155.696927,10.3701852 153.938376,6.53574074 150.758019,3.6787037 C148.400813,1.57351852 145.145624,0.332962963 141.703355,0.332962963 Z M141.703355,1.57351852 C148.849805,1.57351852 154.312536,7.32518519 154.312536,14.4677778 C154.312536,21.6103704 148.887221,27.3996296 141.703355,27.3996296 C134.556906,27.3996296 129.094175,21.6103704 129.094175,14.4677778 C129.094175,7.32518519 134.556906,1.57351852 141.703355,1.57351852 Z" id="Path" fill="#F6A623"></path>
                    <path d="M108.200001,0.332962963 C104.196493,0.332962963 100.567144,1.94944444 97.9480265,4.84407407 C95.5534047,7.47555556 94.2064299,10.9340741 94.2064299,14.4677778 C94.2064299,18.602963 95.9649803,22.4374074 99.1453374,25.2944444 C101.502543,27.3996296 104.757732,28.6401852 108.200001,28.6401852 C111.64227,28.6401852 114.897459,27.3996296 117.254665,25.2944444 C120.435022,22.4374074 122.193573,18.5653704 122.193573,14.4677778 C122.193573,10.3701852 120.435022,6.53574074 117.254665,3.6787037 C114.897459,1.57351852 111.64227,0.332962963 108.200001,0.332962963 Z M108.200001,1.57351852 C115.346451,1.57351852 120.809182,7.32518519 120.809182,14.4677778 C120.809182,21.6103704 115.383867,27.3996296 108.200001,27.3996296 C101.053552,27.3996296 95.5908206,21.6103704 95.5908206,14.4677778 C95.5908206,7.32518519 101.053552,1.57351852 108.200001,1.57351852 Z" id="Path-2" fill="#F6A623"></path>
                    <path d="M79.0583373,1.04722222 L79.0583373,28.2642593 L80.3678962,27.9259259 L80.3678962,15.1068519 L88.4871609,15.1068519 L88.4871609,13.9790741 L80.3678962,13.9790741 L80.3678962,2.21259259 L90.0212155,2.21259259 L89.6096399,1.04722222 L79.0583373,1.04722222 Z" id="Path" fill="#F6A623"></path>
                    <path d="M70.3083594,3.45314815 C67.8389056,1.46074074 64.9204602,0.445740741 61.7401031,0.445740741 C57.5495149,0.445740741 54.1820779,1.83666667 51.4881283,4.84407407 C49.0935064,7.51314815 47.7465317,10.9340741 47.7465317,14.4677778 C47.7465317,18.5653704 49.5050821,22.475 52.6854392,25.2944444 C55.117477,27.4748148 58.1481703,28.5274074 61.7401031,28.5274074 C63.7623557,28.5274074 65.7846083,28.0594485 67.6768332,27.1409495 C68.8655041,26.5639605 70.0028636,25.80918 71.0566787,24.8809259 L71.0566787,14.0166667 L69.7471068,14.0166667 L69.7471199,24.2042593 C67.8014896,26.1966667 64.7707964,27.3996296 61.5530233,27.3996296 C58.52233,27.3996296 55.7909644,26.347037 53.5085905,24.317037 C50.664977,21.7607407 49.1309224,18.3022222 49.1309224,14.4677778 C49.1309224,7.32518519 54.4065737,1.61111111 61.7401031,1.61111111 C64.3966367,1.61111111 67.1654182,2.58851852 69.7471199,4.54333333 L70.3083594,3.45314815 Z" id="EGGFOO-2" fill="#9BA19E"></path>
                    <path d="M40.3969538,3.45314815 C37.9275,1.46074074 35.0090546,0.445740741 31.8286975,0.445740741 C27.6381092,0.445740741 24.2706723,1.83666667 21.5767227,4.84407407 C19.1821008,7.51314815 17.8351261,10.9340741 17.8351261,14.4677778 C17.8351261,18.5653704 19.5936765,22.475 22.7740336,25.2944444 C25.2060714,27.4748148 28.2367647,28.5274074 31.8286975,28.5274074 C33.8509501,28.5274074 35.8732026,28.0594485 37.7654276,27.1409495 C38.9540985,26.5639605 40.091458,25.80918 41.1452731,24.8809259 L41.1452731,14.0166667 L39.8357012,14.0166667 L39.8357143,24.2042593 C37.890084,26.1966667 34.8593908,27.3996296 31.6416176,27.3996296 C28.6109244,27.3996296 25.8795588,26.347037 23.5971849,24.317037 C20.7535714,21.7607407 19.2195168,18.3022222 19.2195168,14.4677778 C19.2195168,7.32518519 24.4951681,1.61111111 31.8286975,1.61111111 C34.4852311,1.61111111 37.2540126,2.58851852 39.8357143,4.54333333 L40.3969538,3.45314815 Z" id="Path" fill="#9BA19E"></path>
                    <path d="M0.132028812,1.04722222 L0.132028812,27.9259259 L12.5915456,27.9259259 L13.0031212,26.722963 L1.40417167,26.722963 L1.40417167,14.5805556 L11.094907,14.5805556 L11.094907,13.4151852 L1.40417167,13.4151852 L1.40417167,2.21259259 L12.4792977,2.21259259 L12.0677221,1.04722222 L0.132028812,1.04722222 Z" id="Path" fill="#9BA19E"></path>
                </g>
            </g>
        </g>
    </g>
</svg>