<?xml version="1.0" encoding="UTF-8" standalone="no"?>
<svg width="272px" height="50px" viewBox="0 0 272 50" version="1.1" xmlns="http://www.w3.org/2000/svg" xmlns:xlink="http://www.w3.org/1999/xlink" xmlns:sketch="http://www.bohemiancoding.com/sketch/ns">
    <!-- Generator: Sketch 3.2.2 (9983) - http://www.bohemiancoding.com/sketch -->
    <title>eggfoo logo light</title>
    <desc>Created with Sketch.</desc>
    <defs></defs>
    <g id="Version-2" stroke="none" stroke-width="1" fill="none" fill-rule="evenodd" sketch:type="MSPage">
        <g id="Home" sketch:type="MSArtboardGroup" transform="translate(-588.000000, -27.000000)">
            <g id="header" sketch:type="MSLayerGroup" transform="translate(50.000000, 23.000000)">
                <g id="eggfoo-logo-light" transform="translate(538.000000, 4.000000)" sketch:type="MSShapeGroup">
                    <path d="M247.072517,0.574074074 C240.092041,0.574074074 233.763946,3.36111111 229.197279,8.35185185 C225.022041,12.8888889 222.673469,18.8518519 222.673469,24.9444444 C222.673469,32.0740741 225.73966,38.6851852 231.284898,43.6111111 C235.394898,47.2407407 241.070612,49.3796296 247.072517,49.3796296 C253.074422,49.3796296 258.750136,47.2407407 262.860136,43.6111111 C268.405374,38.6851852 271.471565,32.0092593 271.471565,24.9444444 C271.471565,17.8796296 268.405374,11.2685185 262.860136,6.34259259 C258.750136,2.71296296 253.074422,0.574074074 247.072517,0.574074074 Z M247.072517,2.71296296 C259.532993,2.71296296 269.057755,12.6296296 269.057755,24.9444444 C269.057755,37.2592593 259.598231,47.2407407 247.072517,47.2407407 C234.612041,47.2407407 225.087279,37.2592593 225.087279,24.9444444 C225.087279,12.6296296 234.612041,2.71296296 247.072517,2.71296296 Z" id="Path" fill="#F6A623"></path>
                    <path d="M188.656413,0.574074074 C181.675936,0.574074074 175.347841,3.36111111 170.781174,8.35185185 C166.605936,12.8888889 164.257365,18.8518519 164.257365,24.9444444 C164.257365,32.0740741 167.323555,38.6851852 172.868793,43.6111111 C176.978793,47.2407407 182.654508,49.3796296 188.656413,49.3796296 C194.658317,49.3796296 200.334032,47.2407407 204.444032,43.6111111 C209.98927,38.6851852 213.05546,32.0092593 213.05546,24.9444444 C213.05546,17.8796296 209.98927,11.2685185 204.444032,6.34259259 C200.334032,2.71296296 194.658317,0.574074074 188.656413,0.574074074 Z M188.656413,2.71296296 C201.116889,2.71296296 210.641651,12.6296296 210.641651,24.9444444 C210.641651,37.2592593 201.182127,47.2407407 188.656413,47.2407407 C176.195936,47.2407407 166.671174,37.2592593 166.671174,24.9444444 C166.671174,12.6296296 176.195936,2.71296296 188.656413,2.71296296 Z" id="Path-2" fill="#F6A623"></path>
                    <path d="M137.845306,1.80555556 L137.845306,48.7314815 L140.128639,48.1481481 L140.128639,26.0462963 L154.285306,26.0462963 L154.285306,24.1018519 L140.128639,24.1018519 L140.128639,3.81481481 L156.960068,3.81481481 L156.242449,1.80555556 L137.845306,1.80555556 Z" id="Path" fill="#F6A623"></path>
                    <path d="M122.588934,5.9537037 C118.28322,2.51851852 113.194649,0.768518519 107.649411,0.768518519 C100.342744,0.768518519 94.4713153,3.16666667 89.7741724,8.35185185 C85.5989343,12.9537037 83.2503629,18.8518519 83.2503629,24.9444444 C83.2503629,32.0092593 86.3165534,38.75 91.8617915,43.6111111 C96.1022677,47.3703704 101.386553,49.1851852 107.649411,49.1851852 C111.175389,49.1851852 114.701368,48.3783594 118.000632,46.7947405 C120.073187,45.7999319 122.056275,44.4985861 123.893696,42.8981481 L123.893696,24.1666667 L121.61034,24.1666667 L121.610363,41.7314815 C118.217982,45.1666667 112.933696,47.2407407 107.32322,47.2407407 C102.038934,47.2407407 97.2765534,45.4259259 93.2970296,41.9259259 C88.3389343,37.5185185 85.6641724,31.5555556 85.6641724,24.9444444 C85.6641724,12.6296296 94.8627438,2.77777778 107.649411,2.77777778 C112.281315,2.77777778 117.108934,4.46296296 121.610363,7.83333333 L122.588934,5.9537037 Z" id="EGGFOO-2" fill="#FFFFFF"></path>
                    <path d="M70.4357143,5.9537037 C66.13,2.51851852 61.0414286,0.768518519 55.4961905,0.768518519 C48.1895238,0.768518519 42.3180952,3.16666667 37.6209524,8.35185185 C33.4457143,12.9537037 31.0971429,18.8518519 31.0971429,24.9444444 C31.0971429,32.0092593 34.1633333,38.75 39.7085714,43.6111111 C43.9490476,47.3703704 49.2333333,49.1851852 55.4961905,49.1851852 C59.0221693,49.1851852 62.5481482,48.3783594 65.8474123,46.7947405 C67.9199666,45.7999319 69.903055,44.4985861 71.7404762,42.8981481 L71.7404762,24.1666667 L69.4571201,24.1666667 L69.4571429,41.7314815 C66.0647619,45.1666667 60.7804762,47.2407407 55.17,47.2407407 C49.8857143,47.2407407 45.1233333,45.4259259 41.1438095,41.9259259 C36.1857143,37.5185185 33.5109524,31.5555556 33.5109524,24.9444444 C33.5109524,12.6296296 42.7095238,2.77777778 55.4961905,2.77777778 C60.1280952,2.77777778 64.9557143,4.46296296 69.4571429,7.83333333 L70.4357143,5.9537037 Z" id="Path" fill="#FFFFFF"></path>
                    <path d="M0.230204082,1.80555556 L0.230204082,48.1481481 L21.9544898,48.1481481 L22.6721088,46.0740741 L2.44829932,46.0740741 L2.44829932,25.1388889 L19.344966,25.1388889 L19.344966,23.1296296 L2.44829932,23.1296296 L2.44829932,3.81481481 L21.7587755,3.81481481 L21.0411565,1.80555556 L0.230204082,1.80555556 Z" id="Path" fill="#FFFFFF"></path>
                </g>
            </g>
        </g>
    </g>
</svg>